<svg width="34" height="35" viewBox="0 0 34 35" fill="none" xmlns="http://www.w3.org/2000/svg">
<g clip-path="url(#clip0_1_206)">
<path d="M28.5747 0.91748H5.08886C2.30939 0.91748 0.0561829 3.17069 0.0561829 5.95016V29.436C0.0561829 32.2155 2.30939 34.4687 5.08886 34.4687H28.5747C31.3542 34.4687 33.6074 32.2155 33.6074 29.436V5.95016C33.6074 3.17069 31.3542 0.91748 28.5747 0.91748Z" fill="white"/>
<path d="M16.8318 9.89504C17.4661 9.89504 18.0745 10.147 18.5231 10.5956C18.9716 11.0442 19.2236 11.6525 19.2236 12.2869C19.2236 12.9212 18.9716 13.5296 18.5231 13.9782C18.0745 14.4267 17.4661 14.6787 16.8318 14.6787C16.1974 14.6787 15.5891 14.4267 15.1405 13.9782C14.692 13.5296 14.44 12.9212 14.44 12.2869C14.44 11.6525 14.692 11.0442 15.1405 10.5956C15.5891 10.147 16.1974 9.89504 16.8318 9.89504ZM16.8318 18.0535C20.0165 18.0535 22.5984 15.4651 22.5984 12.2869C22.5984 9.10869 20.01 6.52026 16.8318 6.52026C13.6536 6.52026 11.0652 9.10869 11.0652 12.2869C11.0652 15.4651 13.6536 18.0535 16.8318 18.0535ZM19.1647 22.7651C20.3481 22.4974 21.4779 22.0321 22.5067 21.389C22.6943 21.2702 22.8566 21.1157 22.9845 20.9342C23.1124 20.7526 23.2033 20.5477 23.252 20.3311C23.3006 20.1145 23.3062 19.8904 23.2682 19.6716C23.2303 19.4528 23.1497 19.2437 23.0309 19.0561C22.9122 18.8685 22.7576 18.7061 22.5761 18.5782C22.3946 18.4504 22.1897 18.3595 21.9731 18.3108C21.7564 18.2621 21.5323 18.2566 21.3136 18.2945C21.0948 18.3325 20.8856 18.4131 20.698 18.5319C19.5327 19.2601 18.1863 19.6462 16.8121 19.6462C15.438 19.6462 14.0915 19.2601 12.9262 18.5319C12.7386 18.4131 12.5295 18.3325 12.3107 18.2945C12.0919 18.2566 11.8678 18.2621 11.6512 18.3108C11.4346 18.3595 11.2297 18.4504 11.0482 18.5782C10.8667 18.7061 10.7121 18.8685 10.5934 19.0561C10.4746 19.2437 10.394 19.4528 10.356 19.6716C10.3181 19.8904 10.3236 20.1145 10.3723 20.3311C10.421 20.5477 10.5119 20.7526 10.6397 20.9342C10.7676 21.1157 10.93 21.2702 11.1176 21.389C12.1595 22.0443 13.2801 22.503 14.4596 22.7651L11.2487 25.9957C10.9315 26.3129 10.7533 26.7431 10.7533 27.1916C10.7533 27.6402 10.9315 28.0704 11.2487 28.3875C11.5658 28.7047 11.996 28.8829 12.4446 28.8829C12.8931 28.8829 13.3233 28.7047 13.6405 28.3875L16.8121 25.2093L19.9838 28.381C20.1408 28.5381 20.3272 28.6627 20.5324 28.7478C20.7376 28.8328 20.9576 28.8766 21.1797 28.8766C21.4018 28.8766 21.6218 28.8328 21.827 28.7478C22.0322 28.6627 22.2186 28.5381 22.3756 28.381C22.5327 28.224 22.6574 28.0375 22.7424 27.8323C22.8275 27.6271 22.8712 27.4072 22.8712 27.1851C22.8712 26.9629 22.8275 26.743 22.7424 26.5378C22.6574 26.3326 22.5327 26.1462 22.3756 25.9891L19.145 22.7585" fill="#0975C2"/>
</g>
<defs>
<clipPath id="clip0_1_206">
<rect width="33.5512" height="33.5512" fill="white" transform="translate(0.0561829 0.91748)"/>
</clipPath>
</defs>
</svg>
