<svg width="37" height="37" viewBox="0 0 37 37" fill="none" xmlns="http://www.w3.org/2000/svg">
<path d="M25.9402 10.9842C25.9475 10.9842 25.9572 10.9842 25.9669 10.9842C26.2199 10.9842 26.4548 11.0634 26.6473 11.1999L26.6437 11.1975C26.7841 11.3205 26.8786 11.4935 26.9016 11.6885V11.6921C26.9258 11.8408 26.9391 12.0114 26.9391 12.1856C26.9391 12.2648 26.9367 12.3428 26.9306 12.4208V12.4098C26.6582 15.2963 25.4765 22.2962 24.876 25.5275C24.6217 26.8958 24.1216 27.354 23.6373 27.3978C22.5852 27.4965 21.786 26.6984 20.7666 26.0259C19.1708 24.9719 18.2687 24.3164 16.7201 23.2892C14.9294 22.1037 16.0905 21.4494 17.11 20.3845C17.3776 20.1042 22.0161 15.858 22.1069 15.473C22.1117 15.4498 22.1142 15.4242 22.1142 15.3974C22.1142 15.3024 22.079 15.2159 22.0221 15.1501C21.9592 15.1086 21.8805 15.0855 21.7981 15.0855C21.7437 15.0855 21.6916 15.0965 21.6432 15.1147L21.6456 15.1135C21.4858 15.1501 18.9367 16.8453 13.9983 20.1993C13.4595 20.627 12.779 20.8974 12.038 20.9291H12.0308C10.981 20.8012 10.0282 20.566 9.1237 20.231L9.2133 20.2602C8.07758 19.8874 7.17555 19.6912 7.25304 19.06C7.29421 18.7319 7.74381 18.396 8.60185 18.0524C13.8873 15.7349 17.4119 14.2074 19.1756 13.4698C21.1213 12.4305 23.377 11.5752 25.7489 11.0208L25.939 10.983L25.9402 10.9842ZM18.4431 0C8.39118 0.0243688 0.251099 8.23055 0.251099 18.3497C0.251099 28.4834 8.41418 36.6994 18.4855 36.6994C28.5567 36.6994 36.7198 28.4847 36.7198 18.3497C36.7198 8.23055 28.5797 0.0243688 18.5303 0H18.5278C18.4996 0 18.4713 0 18.4431 0Z" fill="white"/>
</svg>
