<svg width="48" height="37" viewBox="0 0 48 37" fill="none" xmlns="http://www.w3.org/2000/svg">
<path d="M47.2667 36.9932C47.1692 36.9932 47.0712 36.985 46.9751 36.9946C46.6781 37.0243 46.4366 36.9324 46.2203 36.71C46.0958 36.5824 45.9238 36.495 45.7603 36.4181C44.3886 35.7749 42.9447 35.3806 41.4737 35.064C40.1579 34.7808 38.8327 34.5736 37.5005 34.4029C36.8831 34.3238 36.2719 34.193 35.6537 34.1193C34.6747 34.0031 33.6934 33.9029 32.7118 33.8178C31.3547 33.7007 29.9963 33.5918 28.637 33.5026C27.8477 33.4509 27.0553 33.429 26.2642 33.4217C24.6749 33.407 23.0843 33.3805 21.4958 33.4185C20.0444 33.4528 18.5943 33.5648 17.1437 33.6449C16.6579 33.6719 16.1709 33.6893 15.6873 33.7391C14.3325 33.8791 12.9759 34.0113 11.6255 34.1907C10.5264 34.3366 9.43123 34.5251 8.34141 34.7323C7.0987 34.9684 5.85598 35.2136 4.62745 35.516C3.67015 35.7521 2.73191 36.076 1.85527 36.5572C1.7981 36.5888 1.72763 36.6144 1.69262 36.6643C1.51889 36.9118 1.27247 36.9195 1.01276 36.9104C0.772993 36.9017 0.532782 36.9095 0.292571 36.9072C0.0040516 36.9044 -0.0136766 36.8921 0.00538071 36.6021C0.0492569 35.9341 0.102441 35.2671 0.149862 34.5997C0.210137 33.7455 0.271741 32.8914 0.326254 32.0369C0.375892 31.2555 0.41179 30.4732 0.461871 29.6918C0.536771 28.523 0.583307 27.3509 0.70873 26.1875C0.827506 25.085 1.02074 23.9916 1.28665 22.9111C1.7427 21.056 2.35519 19.2627 3.13477 17.527C3.89795 15.8275 4.79498 14.2075 5.84668 12.6832C6.33463 11.9759 6.87666 11.3062 7.42046 10.6424C8.12735 9.77866 8.82671 8.90304 9.59166 8.09605C10.4023 7.24056 11.2634 6.43174 12.1449 5.65356C12.9666 4.92846 13.8344 4.25688 14.7012 3.5885C15.4028 3.04776 16.139 2.55963 16.9416 2.18312C17.832 1.76544 18.6962 1.28189 19.6034 0.910417C21.3935 0.177535 23.2491 -0.17747 25.1841 0.0874103C26.8758 0.318895 28.4943 0.809314 30.022 1.59069C30.8867 2.03307 31.75 2.48918 32.5646 3.01985C33.4461 3.59399 34.2975 4.22714 35.1112 4.89918C35.9608 5.60095 36.7488 6.38141 37.5669 7.12436C37.7123 7.25657 37.8816 7.36088 38.0243 7.49538C38.9954 8.41171 39.8179 9.4694 40.6392 10.5211C41.6164 11.7728 42.4846 13.1091 43.2766 14.4957C44.4528 16.5553 45.4518 18.6995 46.1618 20.9791C46.6848 22.6581 47.0916 24.3668 47.2516 26.1267C47.377 27.506 47.4705 28.888 47.5694 30.2696C47.6713 31.6983 47.7648 33.1275 47.857 34.5571C47.8956 35.1582 47.9199 35.7603 47.9541 36.3614C47.9616 36.4945 47.9833 36.6268 47.9971 36.7599C48.0135 36.9159 47.9634 36.9982 47.7928 36.9863C47.6181 36.974 47.4426 36.9836 47.2671 36.9836C47.2667 36.9872 47.2667 36.99 47.2667 36.9932ZM1.32477 24.2405C1.33939 24.2414 1.35402 24.2423 1.36909 24.2437C1.55656 23.7606 1.75999 23.2835 1.92751 22.793C2.29625 21.7148 2.80371 20.7074 3.3577 19.722C4.23832 18.1556 5.19031 16.6477 6.40155 15.3187C7.33093 14.299 8.25721 13.2793 9.25705 12.3314C10.1762 11.4599 11.157 10.6703 12.1702 9.9223C12.6236 9.58789 13.0871 9.26628 13.5596 8.9616C14.1636 8.57228 14.7748 8.19212 15.3966 7.83391C15.905 7.54112 16.4452 7.32016 16.9868 7.09325C18.6993 6.37547 20.4264 5.74277 22.2799 5.53142C23.2323 5.42299 24.1812 5.35437 25.1318 5.49207C25.9597 5.61193 26.7938 5.71487 27.6066 5.90792C28.9942 6.23731 30.3198 6.77622 31.6188 7.36865C32.3461 7.70033 33.0424 8.11023 33.736 8.51464C34.8621 9.17112 35.9187 9.93649 36.9283 10.7705C37.551 11.2851 38.206 11.7632 38.7919 12.319C40.1503 13.6073 41.4072 14.993 42.5307 16.5114C44.1337 18.6766 45.4633 20.9906 46.3466 23.5666C46.3967 23.7121 46.4548 23.8548 46.5093 23.9989C46.5252 23.9944 46.5412 23.9893 46.5576 23.9848C46.5509 23.907 46.5549 23.826 46.5363 23.7515C46.351 23.0131 46.1995 22.2633 45.9664 21.5414C45.4873 20.055 44.9412 18.5952 44.237 17.2013C43.5142 15.7698 42.7581 14.3608 41.8845 13.019C40.7965 11.3469 39.5759 9.78689 38.2251 8.33485C37.933 8.02102 37.6135 7.73327 37.3001 7.44048C36.7138 6.89196 36.1319 6.33795 35.5327 5.80499C33.9997 4.4417 32.3599 3.24493 30.5623 2.26822C28.6712 1.24117 26.6905 0.576457 24.5583 0.384315C23.3138 0.272233 22.111 0.4996 20.9268 0.832645C19.704 1.17667 18.5504 1.70735 17.426 2.31854C16.3552 2.90091 15.3328 3.55465 14.3587 4.2921C12.6594 5.57854 11.0826 7.01228 9.62933 8.58463C8.82405 9.45613 8.05688 10.3679 7.31764 11.2998C6.70736 12.0693 6.15026 12.8849 5.5945 13.6983C5.23994 14.2171 4.90312 14.7528 4.60618 15.3082C3.8789 16.6674 3.20834 18.0545 2.65524 19.5038C2.09681 20.9663 1.66957 22.4636 1.35402 23.998C1.33851 24.0758 1.33452 24.1586 1.32477 24.2405ZM46.3218 25.3965C46.3329 25.3956 46.3435 25.3952 46.3546 25.3943C46.3488 25.3508 46.3466 25.306 46.336 25.2634C46.0045 23.9001 45.4988 22.6036 44.9036 21.3442C44.3602 20.1945 43.7663 19.0705 43.0178 18.0467C42.2564 17.0055 41.5074 15.9496 40.6786 14.9674C39.708 13.8173 38.6709 12.7262 37.4686 11.8186C36.7577 11.2815 36.0853 10.6886 35.3638 10.168C33.6739 8.94879 31.8887 7.91305 29.94 7.18109C28.9193 6.79772 27.8916 6.46284 26.8257 6.25378C25.4447 5.98295 24.0566 5.80453 22.6499 6.00033C22.0082 6.08954 21.3602 6.16365 20.7322 6.31737C19.2528 6.68015 17.824 7.21037 16.4421 7.86227C15.3204 8.39158 14.2678 9.05126 13.2405 9.7599C12.0571 10.576 10.923 11.4535 9.85802 12.427C8.80322 13.3914 7.79983 14.4083 6.89084 15.5223C6.67368 15.7881 6.46803 16.0663 6.23314 16.3147C5.62641 16.9561 5.12427 17.6825 4.66423 18.4342C4.06592 19.4123 3.48312 20.4004 3.00181 21.4522C2.43453 22.6915 1.9479 23.9555 1.63855 25.2895C1.61462 25.3924 1.58094 25.4926 1.55168 25.5942C1.70148 25.375 1.82159 25.1495 1.94081 24.9235C2.26656 24.3068 2.57192 23.6773 2.92115 23.0748C4.08941 21.0596 5.6366 19.3793 7.3296 17.8317C7.53835 17.6409 7.73202 17.4295 7.95362 17.2571C8.72522 16.6559 9.49061 16.0452 10.2861 15.4798C11.9322 14.3095 13.6908 13.3452 15.5619 12.6196C16.6841 12.1845 17.8337 11.8378 19.0078 11.5633C20.6502 11.1795 22.3096 10.9599 23.9857 11.0038C25.2927 11.0381 26.5992 11.19 27.8991 11.3469C28.559 11.4265 29.2061 11.6246 29.8563 11.7815C31.4026 12.1553 32.8948 12.702 34.3312 13.3918C36.1168 14.2491 37.8134 15.2698 39.3871 16.5018C40.2163 17.1509 40.995 17.8582 41.7157 18.63C42.2874 19.2416 42.8347 19.8789 43.3697 20.5253C44.186 21.5107 44.8836 22.5831 45.4766 23.7263C45.7643 24.2798 46.0408 24.8393 46.3218 25.3965ZM1.67002 27.5215C1.68642 27.5293 1.70281 27.5371 1.71921 27.5449C1.78924 27.4438 1.86813 27.3482 1.92751 27.2411C2.64859 25.946 3.59702 24.8416 4.61637 23.7935C5.35074 23.0387 6.18129 22.4083 7.0136 21.7802C7.49536 21.4169 7.9811 21.056 8.48944 20.7348C9.98522 19.7897 11.5284 18.9305 13.1802 18.3129C14.2882 17.8985 15.4161 17.5343 16.5507 17.2054C17.2345 17.0073 17.945 16.8915 18.6501 16.7886C19.7342 16.6308 20.8213 16.4633 21.9124 16.3934C24.7156 16.214 27.5002 16.4162 30.2613 16.9606C31.7997 17.2639 33.3074 17.6798 34.777 18.2375C36.1115 18.7439 37.4207 19.3148 38.6647 20.0257C39.3561 20.421 40.0364 20.8455 40.6804 21.3167C41.6062 21.9943 42.4789 22.7423 43.2828 23.5776C44.3669 24.7039 45.3574 25.8989 46.1068 27.2923C46.1277 27.3312 46.1401 27.3751 46.1565 27.4168C46.1853 27.3971 46.2145 27.3774 46.2433 27.3582C46.2185 27.2324 46.2083 27.1011 46.1658 26.9822C45.7651 25.8623 45.2874 24.779 44.7072 23.745C43.9237 22.3488 42.9934 21.0633 41.9311 19.8821C40.6746 18.4849 39.3105 17.2223 37.7469 16.1843C35.9989 15.0237 34.1858 14.0135 32.2304 13.2807C30.6296 12.6804 28.9947 12.2097 27.3057 11.97C26.3816 11.8387 25.4514 11.7014 24.5215 11.6804C22.7355 11.6397 20.9551 11.7678 19.2152 12.2335C18.2685 12.4869 17.3152 12.7285 16.3903 13.0528C14.9827 13.5469 13.6331 14.192 12.3492 14.9683C11.0786 15.7364 9.84517 16.5649 8.71281 17.5439C7.32384 18.7448 5.98185 19.9951 4.84506 21.4609C4.06902 22.4614 3.36169 23.5131 2.81301 24.6637C2.42743 25.4729 2.10656 26.3152 1.76309 27.145C1.71611 27.2631 1.7006 27.3957 1.67002 27.5215ZM1.72542 29.6987C1.74093 29.7051 1.75688 29.7115 1.7724 29.7179C1.81095 29.6749 1.85394 29.6356 1.88674 29.5884C2.53026 28.6716 3.36612 27.9584 4.21306 27.2599C5.2847 26.3765 6.49906 25.7337 7.72183 25.1147C9.49194 24.2195 11.3378 23.5259 13.2507 23.0323C14.2124 22.7843 15.1794 22.5542 16.15 22.3461C16.6823 22.2317 17.2257 22.1654 17.7668 22.1022C19.0233 21.9558 20.2788 21.7779 21.5397 21.701C22.684 21.6315 23.8359 21.6475 24.9829 21.6832C26.2207 21.7221 27.4617 21.7802 28.6924 21.916C30.4856 22.1137 32.2677 22.4142 34.0161 22.8809C35.7937 23.3553 37.5461 23.9157 39.2356 24.6728C40.6223 25.2945 41.924 26.0709 43.1605 26.9607C44.245 27.7411 45.2169 28.6565 46.0652 29.7074C46.1201 29.7755 46.1879 29.8323 46.25 29.894C46.2646 29.8853 46.2788 29.8766 46.2934 29.8675C46.2837 29.8121 46.285 29.7513 46.2628 29.7019C45.961 29.0276 45.6942 28.3331 45.3432 27.6871C44.7985 26.6862 44.1098 25.7836 43.3502 24.9459C42.3592 23.8539 41.2942 22.8456 40.0856 22.0094C39.6655 21.7184 39.2608 21.3996 38.8212 21.1438C37.6627 20.469 36.4647 19.8757 35.2255 19.3729C33.3544 18.614 31.4269 18.0503 29.4481 17.6963C28.4598 17.5197 27.455 17.4428 26.4587 17.3138C25.0095 17.1262 23.5532 17.1569 22.1035 17.2324C20.5687 17.3124 19.0441 17.5489 17.5386 17.8783C16.0388 18.2068 14.5829 18.6885 13.1589 19.2755C12.0119 19.748 10.9142 20.3217 9.83852 20.9439C8.3844 21.7847 7.03798 22.7875 5.78374 23.9148C5.22354 24.418 4.72229 24.9931 4.21129 25.5525C3.16269 26.7004 2.3809 28.028 1.77505 29.4709C1.74625 29.5427 1.74137 29.6232 1.72542 29.6987ZM1.35313 35.2799C1.45728 35.2406 1.51712 35.2205 1.57517 35.1962C1.91111 35.0539 2.24484 34.9053 2.583 34.768C4.11113 34.1468 5.71061 33.7931 7.31409 33.4669C8.46551 33.2327 9.62756 33.0552 10.7865 32.8635C11.3755 32.7661 11.9672 32.6819 12.5597 32.6115C13.326 32.5204 14.0941 32.4404 14.8626 32.3722C15.9869 32.272 17.1118 32.1686 18.2384 32.0986C20.6618 31.9481 23.0878 31.8868 25.5147 31.9605C27.2068 32.0117 28.8981 32.1046 30.5897 32.1865C31.1858 32.2153 31.7824 32.2482 32.3758 32.3109C33.4528 32.4253 34.528 32.5607 35.6031 32.6929C36.2923 32.778 36.9815 32.8617 37.668 32.966C39.3171 33.2172 40.9578 33.5131 42.5755 33.9345C43.8284 34.2611 45.068 34.6262 46.2394 35.2035C46.3302 35.2484 46.4428 35.2452 46.5452 35.2644C46.5327 35.155 46.5509 35.0274 46.5022 34.9396C46.3041 34.5809 46.1206 34.2039 45.8666 33.8897C45.2829 33.1664 44.5393 32.6234 43.7504 32.1741C42.9345 31.7093 42.0862 31.2971 41.2268 30.9238C39.4815 30.1658 37.6467 29.712 35.8044 29.2805C34.3024 28.9287 32.7809 28.7146 31.2603 28.4932C30.5995 28.3972 29.9289 28.3757 29.2668 28.2901C27.6403 28.0801 26.0027 28.1167 24.3704 28.0435C23.8594 28.0207 23.3462 28.0572 22.8338 28.0655C22.0813 28.0778 21.3279 28.0728 20.5762 28.1044C18.9032 28.1744 17.2341 28.3061 15.5788 28.5715C14.3684 28.7654 13.1603 28.9722 11.9552 29.1987C10.4851 29.475 9.04831 29.8908 7.64294 30.411C6.6001 30.7971 5.55727 31.1841 4.58579 31.7546C3.56822 32.3521 2.60117 32.998 1.90358 33.9976C1.64298 34.3705 1.4462 34.7694 1.35313 35.2799ZM46.3936 32.5524C46.3648 32.4641 46.3546 32.4285 46.3417 32.3937C45.9194 31.255 45.1965 30.3295 44.3669 29.4914C43.1374 28.2494 41.713 27.2818 40.1906 26.4712C38.6248 25.6372 36.9788 25.0045 35.3009 24.4551C33.1483 23.7505 30.9425 23.304 28.7044 23.0268C27.9071 22.928 27.1018 22.8987 26.301 22.8246C24.8109 22.6864 23.3218 22.7294 21.8291 22.7839C20.145 22.8452 18.4781 23.0552 16.8246 23.3512C15.5624 23.5772 14.3143 23.9024 13.0721 24.2304C11.8214 24.5603 10.6097 25.0168 9.41616 25.532C8.17344 26.0681 6.97638 26.6953 5.83648 27.4246C4.87165 28.0412 3.98703 28.7782 3.21942 29.6571C2.65125 30.3076 2.13714 30.9897 1.7848 31.7912C1.71389 31.9527 1.65185 32.1183 1.58581 32.2821C1.73517 32.224 1.85084 32.1425 1.95987 32.0524C3.33022 30.9156 4.87032 30.1036 6.51767 29.4892C8.33211 28.8121 10.1731 28.2375 12.0753 27.8884C13.096 27.7009 14.1149 27.5014 15.1404 27.3463C16.1093 27.2004 17.083 27.0787 18.0584 26.9959C19.1895 26.8994 20.324 26.8303 21.4582 26.7964C23.3586 26.7402 25.259 26.7653 27.1599 26.8619C28.7753 26.9437 30.3841 27.0846 31.9818 27.3276C33.3925 27.5421 34.7979 27.8015 36.1966 28.0888C38.6408 28.5907 41.0163 29.3231 43.2593 30.4686C44.1271 30.9119 44.9732 31.3909 45.7359 32.0122C45.9415 32.1796 46.1463 32.3493 46.3936 32.5524Z" fill="white"/>
</svg>
