<svg width="37" height="38" viewBox="0 0 37 38" fill="none" xmlns="http://www.w3.org/2000/svg">
<path d="M18.2344 0.45874C8.16367 0.45874 0 8.67405 0 18.8084C0 28.9428 8.16367 37.1581 18.2344 37.1581C28.305 37.1581 36.4687 28.9428 36.4687 18.8084C36.4687 8.67405 28.305 0.45874 18.2344 0.45874ZM25.247 21.1614C25.247 21.1614 26.8596 22.7632 27.2566 23.5067C27.268 23.522 27.2737 23.5373 27.2775 23.5449C27.4389 23.8183 27.4769 24.0304 27.3971 24.1891C27.2642 24.4529 26.8083 24.5829 26.6525 24.5943H23.8034C23.6059 24.5943 23.1918 24.5427 22.6904 24.1948C22.3048 23.9234 21.9249 23.478 21.5545 23.0442C21.0018 22.3981 20.5231 21.84 20.0407 21.84C19.9794 21.8398 19.9185 21.8495 19.8603 21.8686C19.4956 21.9871 19.0283 22.5109 19.0283 23.9062C19.0283 24.342 18.6864 24.5924 18.4452 24.5924H17.1403C16.6958 24.5924 14.3804 24.4357 12.3291 22.2586C9.81806 19.5921 7.55776 14.2439 7.53877 14.1942C7.39631 13.8483 7.69072 13.6629 8.01172 13.6629H10.8893C11.273 13.6629 11.3984 13.898 11.4857 14.1063C11.5883 14.3491 11.9644 15.3143 12.5817 16.4C13.5827 18.17 14.1962 18.8887 14.6882 18.8887C14.7804 18.8876 14.871 18.864 14.9522 18.8199C15.5942 18.4606 15.4745 16.1573 15.446 15.6794C15.446 15.5896 15.4441 14.6492 15.1155 14.1981C14.88 13.8712 14.4792 13.747 14.2361 13.7011C14.3345 13.5645 14.4641 13.4537 14.6141 13.3781C15.0547 13.1563 15.8487 13.1238 16.6369 13.1238H17.0757C17.9304 13.1353 18.1508 13.1907 18.4604 13.2691C19.0872 13.4201 19.1005 13.8273 19.0454 15.2207C19.0283 15.6163 19.0112 16.0636 19.0112 16.5912C19.0112 16.7059 19.0055 16.8282 19.0055 16.9582C18.9865 17.6673 18.9637 18.472 19.4614 18.8027C19.5263 18.8437 19.6013 18.8655 19.6779 18.8658C19.8508 18.8658 20.3712 18.8658 21.7806 16.4325C22.2152 15.6493 22.5929 14.8355 22.9107 13.9974C22.9392 13.9477 23.0228 13.7948 23.1215 13.7355C23.1944 13.6981 23.2753 13.6791 23.3571 13.6801H26.7399C27.1084 13.6801 27.361 13.7355 27.4085 13.8789C27.4921 14.1063 27.3933 14.8002 25.8491 16.9047L25.1596 17.8202C23.7597 19.6667 23.7597 19.7603 25.247 21.1614Z" fill="white"/>
</svg>
