<svg width="37" height="37" viewBox="0 0 37 37" fill="none" xmlns="http://www.w3.org/2000/svg">
<g clip-path="url(#clip0_1_97)">
<path d="M16.0004 22.2046L21.9693 18.7002L16.0004 15.1958V22.2046Z" fill="white"/>
<path d="M18.4292 0.45874C8.35761 0.45874 0.194885 8.62146 0.194885 18.6931C0.194885 28.7647 8.35761 36.9274 18.4292 36.9274C28.5009 36.9274 36.6636 28.7647 36.6636 18.6931C36.6636 8.62146 28.5009 0.45874 18.4292 0.45874ZM27.5464 21.9553C27.5464 25.0965 24.4053 25.0965 24.4053 25.0965H12.4532C9.31206 25.0965 9.31206 21.9553 9.31206 21.9553V15.438C9.31206 12.2968 12.4532 12.2968 12.4532 12.2968H24.4053C27.5464 12.2968 27.5464 15.438 27.5464 15.438V21.9553Z" fill="white"/>
</g>
<defs>
<clipPath id="clip0_1_97">
<rect width="36.4687" height="36.4687" fill="white" transform="translate(0.194885 0.45874)"/>
</clipPath>
</defs>
</svg>
